<?xml version="1.0" encoding="UTF-8" standalone="no"?>
<!-- Generator: Adobe Illustrator 16.0.0, SVG Export Plug-In . SVG Version: 6.00 Build 0)  -->

<svg
   xmlns:dc="http://purl.org/dc/elements/1.1/"
   xmlns:cc="http://creativecommons.org/ns#"
   xmlns:rdf="http://www.w3.org/1999/02/22-rdf-syntax-ns#"
   xmlns:svg="http://www.w3.org/2000/svg"
   xmlns="http://www.w3.org/2000/svg"
   xmlns:sodipodi="http://sodipodi.sourceforge.net/DTD/sodipodi-0.dtd"
   xmlns:inkscape="http://www.inkscape.org/namespaces/inkscape"
   version="1.1"
   id="Capa_1"
   x="0px"
   y="0px"
   width="18pt"
   height="15pt"
   viewBox="0 0 24.000001 20.000001"
   xml:space="preserve"
   sodipodi:docname="arrows-merg.svg"
   inkscape:version="0.92.2 (5c3e80d, 2017-08-06)"
   inkscape:export-filename="arrows-merg.svg.png"
   inkscape:export-xdpi="96"
   inkscape:export-ydpi="96"><metadata
     id="metadata41"><rdf:RDF><cc:Work
         rdf:about=""><dc:format>image/svg+xml</dc:format><dc:type
           rdf:resource="http://purl.org/dc/dcmitype/StillImage" /><dc:title></dc:title></cc:Work></rdf:RDF></metadata><defs
     id="defs39" /><sodipodi:namedview
     pagecolor="#ffffff"
     bordercolor="#666666"
     borderopacity="1"
     objecttolerance="10"
     gridtolerance="10"
     guidetolerance="10"
     inkscape:pageopacity="0"
     inkscape:pageshadow="2"
     inkscape:window-width="1278"
     inkscape:window-height="778"
     id="namedview37"
     showgrid="false"
     units="pt"
     inkscape:zoom="32"
     inkscape:cx="10.511652"
     inkscape:cy="7.0079574"
     inkscape:window-x="0"
     inkscape:window-y="20"
     inkscape:window-maximized="1"
     inkscape:current-layer="Capa_1" /><g
     id="g4"
     transform="matrix(0.03972073,0,0,0.05441057,2.0149635,-0.1788453)"
     style="fill:#555555;fill-opacity:1"><path
       d="M 1.9668571,369.0521 0,367.13844 v -48.7081 l 1.1801143,-1.65118 c 1.3633589,0 1.5315876,-0.41816 2.865234,-0.44574 C 63.320394,315.10782 93.56363,286.95889 122.837,259.71647 c 7.288,-6.78929 14.665,-13.62363 22.419,-19.94654 -7.755,-6.31259 -15.131,-13.15068 -22.419,-19.94561 C 93.402399,192.43556 79.115447,166.75039 19.191509,165.81699 18.178888,165.80122 6.1434402,166.8038 5.5071998,165.99537 l -3.5509757,-0.73239 -1.60145709,-3.61542 -0.32086389,-0.86271 0.65449687,-45.96498 1.05438041,-2.49763 1.7683062,-1.88136 c 2.2601219,-1.61686 4.2300292,-2.54195 8.4119064,-2.30979 61.629579,3.42128 121.036997,43.12663 152.458007,72.38476 19.55,18.19925 32.116,29.30329 45.521,31.45504 1.599,-0.0798 3.166,-0.18018 4.812,-0.18018 v 0.58744 0 H 356.596 L 332.35,154.8038 c -0.816,-1.93028 -0.154,-4.13457 1.619,-5.37982 1.762,-1.24807 4.197,-1.24244 5.946,0.0244 l 120.544,86.96303 c 1.206,0.87365 1.909,2.22775 1.909,3.65787 0,1.43011 -0.703,2.78516 -1.909,3.65599 l -120.544,86.96584 c -0.881,0.63248 -1.938,0.95435 -2.991,0.95435 -1.04,0 -2.08,-0.31061 -2.955,-0.93182 -1.773,-1.24244 -2.423,-3.45049 -1.619,-5.37983 l 24.246,-57.58467 H 214.54 c -0.047,0 -0.092,-0.0113 -0.133,-0.0113 -1.531,0 -3.015,-0.0892 -4.504,-0.1614 -13.406,2.14611 -25.966,13.25109 -45.521,31.45503 -31.95498,29.74625 -75.372138,69.07982 -156.5900949,71.52129 -2.5594862,0.0769 -4.566456,-0.96175 -5.825048,-1.5007 z"
       id="path2"
       inkscape:connector-curvature="0"
       style="fill:#555555;fill-opacity:1;stroke-width:0.9687084"
       sodipodi:nodetypes="ccccscccscccccccsccccccccccsccscccssccsc" /></g><g
     id="g6"
     transform="translate(0,-442.36897)" /><g
     id="g8"
     transform="translate(0,-442.36897)" /><g
     id="g10"
     transform="translate(0,-442.36897)" /><g
     id="g12"
     transform="translate(0,-442.36897)" /><g
     id="g14"
     transform="translate(0,-442.36897)" /><g
     id="g16"
     transform="translate(0,-442.36897)" /><g
     id="g18"
     transform="translate(0,-442.36897)" /><g
     id="g20"
     transform="translate(0,-442.36897)" /><g
     id="g22"
     transform="translate(0,-442.36897)" /><g
     id="g24"
     transform="translate(0,-442.36897)" /><g
     id="g26"
     transform="translate(0,-442.36897)" /><g
     id="g28"
     transform="translate(0,-442.36897)" /><g
     id="g30"
     transform="translate(0,-442.36897)" /><g
     id="g32"
     transform="translate(0,-442.36897)" /><g
     id="g34"
     transform="translate(0,-442.36897)" /></svg>
